<?xml version="1.0" encoding="utf-8"?>
<!-- Generator: Adobe Illustrator 23.0.1, SVG Export Plug-In . SVG Version: 6.00 Build 0)  -->
<svg version="1.1" id="Layer_1" xmlns="http://www.w3.org/2000/svg" xmlns:xlink="http://www.w3.org/1999/xlink" x="0px" y="0px"
	 viewBox="0 0 511.92 511.92" style="enable-background:new 0 0 511.92 511.92;" xml:space="preserve">
<style type="text/css">
	.st0{fill:#FFFFFF;}
</style>
<path class="st0" d="M256,0C114.62,0,0,114.62,0,256s114.62,256,256,256s256-114.62,256-256S397.38,0,256,0z M99.06,125.06h313.89
	c6.72-0.02,13.19,2.51,18.1,7.1L256,282.19L81.01,132.21C85.89,127.61,92.35,125.05,99.06,125.06z M72.68,365.66V148.05
	l126.57,110.02L72.68,365.66z M412.94,386.98H99.06c-6.71,0.01-13.18-2.53-18.1-7.1l129.68-111.17l45.36,39.7l45.36-39.7
	l129.61,111.17c-4.9,4.55-11.34,7.08-18.02,7.06L412.94,386.98z M312.75,258.08l126.57-110.11v217.69L312.75,258.08z"/>
</svg>
