<?xml version="1.0" encoding="utf-8"?>
<!-- Generator: Adobe Illustrator 23.0.1, SVG Export Plug-In . SVG Version: 6.00 Build 0)  -->
<svg version="1.1" id="Layer_1" xmlns="http://www.w3.org/2000/svg" xmlns:xlink="http://www.w3.org/1999/xlink" x="0px" y="0px"
	 viewBox="0 0 511.92 511.92" style="enable-background:new 0 0 511.92 511.92;" xml:space="preserve">
<style type="text/css">
	.st0{fill:#FFFFFF;}
</style>
<g>
	<g>
		<g>
			<path class="st0" d="M256.5,307.61c27.93,0,51.71-22.71,51.71-51.61c0-11.35-4.14-21.68-9.31-29.94
				c-9.31-13.42-24.82-21.68-41.37-21.68c-17.58,0-32.06,8.26-41.37,21.68c-6.21,8.26-9.31,18.58-9.31,29.94
				C205.82,284.9,228.57,307.61,256.5,307.61z"/>
			<polygon class="st0" points="369.23,193.03 369.23,150.71 369.23,144.52 363.02,144.52 319.59,144.52 319.59,194.06 			"/>
			<path class="st0" d="M256.5,0C114.8,0,0,114.58,0,256s114.8,256,256.5,256s256.5-114.58,256.5-256
				C514.03,114.58,398.19,0,256.5,0z M402.33,226.06v119.74c0,30.97-24.82,56.77-56.88,56.77H167.55
				c-31.03,0-56.88-24.77-56.88-56.77V226.06v-59.87c0-30.97,24.82-56.77,56.88-56.77h178.93c31.03,0,56.88,24.77,56.88,56.77v59.87
				H402.33z"/>
			<path class="st0" d="M336.13,256c0,44.39-36.2,79.48-79.64,79.48s-79.64-36.13-79.64-79.48c0-10.32,2.07-20.65,6.21-29.94h-43.44
				v119.74c0,15.48,12.41,27.87,27.93,27.87h178.93c15.51,0,27.93-12.39,27.93-27.87V226.06h-43.44
				C334.07,235.35,336.13,245.68,336.13,256z"/>
		</g>
	</g>
</g>
</svg>
