<?xml version="1.0" encoding="utf-8"?>
<!-- Generator: Adobe Illustrator 23.0.1, SVG Export Plug-In . SVG Version: 6.00 Build 0)  -->
<svg version="1.1" id="Layer_1" xmlns="http://www.w3.org/2000/svg" xmlns:xlink="http://www.w3.org/1999/xlink" x="0px" y="0px"
	 viewBox="0 0 511.92 511.92" style="enable-background:new 0 0 511.92 511.92;" xml:space="preserve">
<style type="text/css">
	.st0{fill:#FFFFFF;}
</style>
<g>
	<path class="st0" d="M256,0C114.63,0,0,114.63,0,256c0,141.37,114.62,256,256,256s256-114.63,256-256C512,114.63,397.38,0,256,0z
		 M391.19,373.53l-20.5,20.5c-3.66,3.65-14.38,5.93-14.72,5.93c-64.84,0.57-127.28-24.9-173.15-70.78
		c-46-46.03-71.5-108.68-70.81-173.75c0-0.03,2.35-10.44,6-14.06l20.5-20.5c7.5-7.54,21.91-10.94,32-7.56l4.31,1.44
		c10.06,3.37,20.63,14.5,23.41,24.75l10.31,37.84c2.78,10.28-0.97,24.91-8.47,32.41l-13.69,13.69
		c13.44,49.74,52.47,88.78,102.22,102.25L302.28,312c7.54-7.54,22.16-11.28,32.41-8.51l37.84,10.35
		c10.25,2.82,21.38,13.32,24.75,23.38l1.44,4.37C402.06,351.66,398.68,366.07,391.19,373.53z"/>
</g>
</svg>
