<?xml version="1.0" encoding="utf-8"?>
<!-- Generator: Adobe Illustrator 23.0.1, SVG Export Plug-In . SVG Version: 6.00 Build 0)  -->
<svg version="1.1" id="Capa_1" xmlns="http://www.w3.org/2000/svg" xmlns:xlink="http://www.w3.org/1999/xlink" x="0px" y="0px"
	 viewBox="0 0 512 512" style="enable-background:new 0 0 512 512;" xml:space="preserve">
<style type="text/css">
	.st0{fill:#FFFFFF;}
</style>
<g>
	<path class="st0" d="M405.5,362.6c-35.1,0-63.9,28.7-63.9,63.9s28.7,63.9,63.9,63.9s63.9-28.7,63.9-63.9S440.6,362.6,405.5,362.6z"
		/>
	<path class="st0" d="M508.3,116.1c-3.8-4.5-8.9-7.7-15.3-7.7H118.1l-17.2-72.2c-1.9-8.9-9.6-14.7-18.5-14.7H19.2
		C8.3,21.6,0,29.9,0,40.8S8.3,60,19.2,60h47.9L129,320.5c1.9,8.9,9.6,14.7,18.5,14.7h298.2c8.9,0,16.6-5.7,18.5-14.7l47.3-188.4
		C512.8,126.4,511.5,120.6,508.3,116.1z"/>
	<path class="st0" d="M173.7,362.6c-35.1,0-63.9,28.7-63.9,63.9s28.7,63.9,63.9,63.9s63.9-28.7,63.9-63.9S208.8,362.6,173.7,362.6z"
		/>
</g>
</svg>
