<?xml version="1.0" encoding="utf-8"?>
<!-- Generator: Adobe Illustrator 23.0.1, SVG Export Plug-In . SVG Version: 6.00 Build 0)  -->
<svg version="1.1" id="Layer_1" xmlns="http://www.w3.org/2000/svg" xmlns:xlink="http://www.w3.org/1999/xlink" x="0px" y="0px"
	 viewBox="0 0 511.92 511.92" style="enable-background:new 0 0 511.92 511.92;" xml:space="preserve">
<style type="text/css">
	.st0{fill:#FFFFFF;}
</style>
<g>
	<g>
		<path class="st0" d="M209.35,312.11c38.41-19.92,76.49-39.66,114.92-59.59c-38.55-20.11-76.61-39.96-114.92-59.96
			C209.35,232.55,209.35,272.13,209.35,312.11z"/>
		<path class="st0" d="M256,0C114.62,0,0,114.61,0,256s114.62,256,256,256s256-114.61,256-256S397.38,0,256,0z M430.43,341.45
			c-4.43,19.22-20.16,33.4-39.08,35.51c-44.82,5.01-90.18,5.04-135.36,5.01c-45.18,0.03-90.55,0-135.38-5.01
			c-18.92-2.11-34.64-16.29-39.06-35.51c-6.3-27.38-6.3-57.27-6.3-85.45s0.07-58.08,6.37-85.45c4.42-19.22,20.13-33.41,39.06-35.52
			c44.83-5.01,90.2-5.03,135.38-5.01c45.17-0.03,90.54,0,135.35,5.01c18.93,2.12,34.66,16.29,39.08,35.52
			c6.3,27.38,6.25,57.27,6.25,85.45S436.73,314.07,430.43,341.45z"/>
	</g>
</g>
</svg>
